<svg xmlns="http://www.w3.org/2000/svg" class="graphdiagram" viewBox="-2030.4318813415255 -329.88386731662956 3503.238968549672 1917.0502133452371"><g class="layer relationships"><g class="related-pair"><g class="relationship" transform="translate(-339.5216487702869,457.9385954236227) rotate(0)"><path class="relationship" d="M 127.37477616841198 4 L 1113.5328240559395 4 L 1113.5328240559395 16 L 1145.5328240559395 0 L 1113.5328240559395 -16 L 1113.5328240559395 -4 L 127.37477616841198 -4 Z" fill="rgb(0, 0, 0)" stroke="rgb(51, 51, 51)" stroke-width="0px"/><text class="type" text-anchor="middle" baseline-shift="30%" alignment-baseline="alphabetic" x="620.4538001121757" y="0" font-size="50px" font-family="&quot;Gill Sans&quot;, &quot;Gill Sans MT&quot;, Calibri, sans-serif">RENTED_BY</text></g></g><g class="related-pair"><g class="relationship" transform="translate(-339.5216487702869,457.9385954236227) rotate(26.642966423508792)"><path class="relationship" d="M 127.37477616841198 4 L 1282.0334473465432 4 L 1282.0334473465432 16 L 1314.0334473465432 0 L 1282.0334473465432 -16 L 1282.0334473465432 -4 L 127.37477616841198 -4 Z" fill="rgb(0, 0, 0)" stroke="rgb(51, 51, 51)" stroke-width="0px"/><text class="type" text-anchor="middle" baseline-shift="30%" alignment-baseline="alphabetic" x="704.7041117574777" y="0" font-size="50px" font-family="&quot;Gill Sans&quot;, &quot;Gill Sans MT&quot;, Calibri, sans-serif">OWNER</text></g></g><g class="related-pair"><g class="relationship" transform="translate(-339.5216487702869,457.9385954236227) rotate(180)"><path class="relationship" d="M 127.37477616841198 4 L 1088.6377220919235 4 L 1088.6377220919235 16 L 1120.6377220919235 0 L 1088.6377220919235 -16 L 1088.6377220919235 -4 L 127.37477616841198 -4 Z" fill="rgb(0, 0, 0)" stroke="rgb(51, 51, 51)" stroke-width="0px"/><text class="type" text-anchor="middle" baseline-shift="30%" alignment-baseline="alphabetic" transform="rotate(180)" x="-608.0062491301678" y="0" font-size="50px" font-family="&quot;Gill Sans&quot;, &quot;Gill Sans MT&quot;, Calibri, sans-serif">REPAIRED_BY</text></g></g><g class="related-pair"><g class="relationship" transform="translate(-1543.8505772181932,457.9385954236227) rotate(90)"><path class="relationship" d="M 83.69120635598269 4 L 498.026640197661 4 L 498.026640197661 16 L 530.026640197661 0 L 498.026640197661 -16 L 498.026640197661 -4 L 83.69120635598269 -4 Z" fill="rgb(0, 0, 0)" stroke="rgb(51, 51, 51)" stroke-width="0px"/><text class="type" text-anchor="middle" baseline-shift="30%" alignment-baseline="alphabetic" x="290.8589232768218" y="0" font-size="50px" font-family="&quot;Gill Sans&quot;, &quot;Gill Sans MT&quot;, Calibri, sans-serif">USED</text></g></g><g class="related-pair"><g class="relationship" transform="translate(-339.5216487702869,457.9385954236227) rotate(-159.1810043628368)"><path class="relationship" d="M 127.37477616841198 4 L 1129.8208210427547 4 L 1129.8208210427547 16 L 1161.8208210427547 0 L 1129.8208210427547 -16 L 1129.8208210427547 -4 L 127.37477616841198 -4 Z" fill="rgb(0, 0, 0)" stroke="rgb(51, 51, 51)" stroke-width="0px"/><text class="type" text-anchor="middle" baseline-shift="30%" alignment-baseline="alphabetic" transform="rotate(180)" x="-628.5977986055834" y="0" font-size="50px" font-family="&quot;Gill Sans&quot;, &quot;Gill Sans MT&quot;, Calibri, sans-serif">HAS</text></g></g></g><g class="layer nodes"><circle class="node node-id-0" r="112.37477616841198" fill="rgb(255, 255, 255)" stroke="rgb(0, 0, 0)" stroke-width="8px" cx="-339.5216487702869" cy="457.9385954236227"/><circle class="node node-id-1" r="103.67090517999684" fill="rgb(255, 255, 255)" stroke="rgb(0, 0, 0)" stroke-width="8px" cx="924.6820804656495" cy="457.9385954236227"/><circle class="node node-id-4" r="85.35229387040818" fill="rgb(255, 255, 255)" stroke="rgb(0, 0, 0)" stroke-width="8px" cx="924.6820804656495" cy="1092.190876415797"/><circle class="node node-id-5" r="68.69120635598269" fill="rgb(255, 255, 255)" stroke="rgb(0, 0, 0)" stroke-width="8px" cx="-1543.8505772181932" cy="457.9385954236227"/><circle class="node node-id-6" r="89.22564079451323" fill="rgb(255, 255, 255)" stroke="rgb(0, 0, 0)" stroke-width="8px" cx="-1543.8505772181932" cy="1092.190876415797"/><circle class="node node-id-7" r="111.63403849833232" fill="rgb(255, 255, 255)" stroke="rgb(0, 0, 0)" stroke-width="8px" cx="-1543.8505772181932" cy="0"/><g class="caption"><text class="caption node" text-anchor="middle" alignment-baseline="central" x="-339.5216487702869" y="457.9385954236227" fill="rgb(51, 51, 51)" font-size="50px" font-family="&quot;Gill Sans&quot;, &quot;Gill Sans MT&quot;, Calibri, sans-serif">Property</text></g><g class="caption"><text class="caption node" text-anchor="middle" alignment-baseline="central" x="924.6820804656495" y="457.9385954236227" fill="rgb(51, 51, 51)" font-size="50px" font-family="&quot;Gill Sans&quot;, &quot;Gill Sans MT&quot;, Calibri, sans-serif">Tenancy</text></g><g class="caption"><text class="caption node" text-anchor="middle" alignment-baseline="central" x="924.6820804656495" y="1092.190876415797" fill="rgb(51, 51, 51)" font-size="50px" font-family="&quot;Gill Sans&quot;, &quot;Gill Sans MT&quot;, Calibri, sans-serif">Client</text></g><g class="caption"><text class="caption node" text-anchor="middle" alignment-baseline="central" x="-1543.8505772181932" y="457.9385954236227" fill="rgb(51, 51, 51)" font-size="50px" font-family="&quot;Gill Sans&quot;, &quot;Gill Sans MT&quot;, Calibri, sans-serif">Staff</text></g><g class="caption"><text class="caption node" text-anchor="middle" alignment-baseline="central" x="-1543.8505772181932" y="1092.190876415797" fill="rgb(51, 51, 51)" font-size="50px" font-family="&quot;Gill Sans&quot;, &quot;Gill Sans MT&quot;, Calibri, sans-serif">Repair</text></g><g class="caption"><text class="caption node" text-anchor="middle" alignment-baseline="central" x="-1543.8505772181932" y="0" fill="rgb(51, 51, 51)" font-size="50px" font-family="&quot;Gill Sans&quot;, &quot;Gill Sans MT&quot;, Calibri, sans-serif">Portfolio</text></g></g><g class="layer properties"><g class="speech-bubble node-speech-bubble" transform="translate(-339.5216487702869,345.5638192552107) "><path class="speech-bubble-outline" transform="scale(1,-1) " d="M 0 0 L -10 20 L -257.04345703125 20 A 10 10 0 0 0 -267.04345703125 30 L -267.04345703125 180 A 10 10 0 0 0 -257.04345703125 190 L 257.04345703125 190 A 10 10 0 0 0 267.04345703125 180 L 267.04345703125 30 A 10 10 0 0 0 257.04345703125 20 L 10 20 Z" fill="rgb(255, 255, 255)" stroke="rgb(0, 0, 0)" stroke-width="3px"/><text class="speech-bubble-content property-key" x="140.39306640625" y="-155" alignment-baseline="central" text-anchor="end" font-size="50px" font-family="&quot;Gill Sans&quot;, &quot;Gill Sans MT&quot;, Calibri, sans-serif" xml:space="preserve">Property_ID: </text><text class="speech-bubble-content property-key" x="140.39306640625" y="-105" alignment-baseline="central" text-anchor="end" font-size="50px" font-family="&quot;Gill Sans&quot;, &quot;Gill Sans MT&quot;, Calibri, sans-serif" xml:space="preserve">Property_Address: </text><text class="speech-bubble-content property-key" x="140.39306640625" y="-55" alignment-baseline="central" text-anchor="end" font-size="50px" font-family="&quot;Gill Sans&quot;, &quot;Gill Sans MT&quot;, Calibri, sans-serif" xml:space="preserve">Property_Type: </text><text class="speech-bubble-content property-value" x="140.39306640625" y="-155" alignment-baseline="central" font-size="50px" font-family="&quot;Gill Sans&quot;, &quot;Gill Sans MT&quot;, Calibri, sans-serif">int</text><text class="speech-bubble-content property-value" x="140.39306640625" y="-105" alignment-baseline="central" font-size="50px" font-family="&quot;Gill Sans&quot;, &quot;Gill Sans MT&quot;, Calibri, sans-serif">String</text><text class="speech-bubble-content property-value" x="140.39306640625" y="-55" alignment-baseline="central" font-size="50px" font-family="&quot;Gill Sans&quot;, &quot;Gill Sans MT&quot;, Calibri, sans-serif">String</text></g><g class="speech-bubble node-speech-bubble" transform="translate(1028.3529856456464,457.9385954236227) "><path class="speech-bubble-outline" transform="scale(1,1) " d="M 0 0 L 20 -10 L 20 -175 A 10 10 0 0 1 30 -185 L 432.9541015625 -185 A 10 10 0 0 1 442.9541015625 -175 L 442.9541015625 175 A 10 10 0 0 1 432.9541015625 185 L 30 185 A 10 10 0 0 1 20 175 L 20 10 Z" fill="rgb(255, 255, 255)" stroke="rgb(0, 0, 0)" stroke-width="3px"/><text class="speech-bubble-content property-key" x="316.3037109375" y="-150" alignment-baseline="central" text-anchor="end" font-size="50px" font-family="&quot;Gill Sans&quot;, &quot;Gill Sans MT&quot;, Calibri, sans-serif" xml:space="preserve">Tenant_ID: </text><text class="speech-bubble-content property-key" x="316.3037109375" y="-100" alignment-baseline="central" text-anchor="end" font-size="50px" font-family="&quot;Gill Sans&quot;, &quot;Gill Sans MT&quot;, Calibri, sans-serif" xml:space="preserve">TenantName: </text><text class="speech-bubble-content property-key" x="316.3037109375" y="-50" alignment-baseline="central" text-anchor="end" font-size="50px" font-family="&quot;Gill Sans&quot;, &quot;Gill Sans MT&quot;, Calibri, sans-serif" xml:space="preserve">TenantType: </text><text class="speech-bubble-content property-key" x="316.3037109375" y="0" alignment-baseline="central" text-anchor="end" font-size="50px" font-family="&quot;Gill Sans&quot;, &quot;Gill Sans MT&quot;, Calibri, sans-serif" xml:space="preserve">Property_ID: </text><text class="speech-bubble-content property-key" x="316.3037109375" y="50" alignment-baseline="central" text-anchor="end" font-size="50px" font-family="&quot;Gill Sans&quot;, &quot;Gill Sans MT&quot;, Calibri, sans-serif" xml:space="preserve">StartDate: </text><text class="speech-bubble-content property-key" x="316.3037109375" y="100" alignment-baseline="central" text-anchor="end" font-size="50px" font-family="&quot;Gill Sans&quot;, &quot;Gill Sans MT&quot;, Calibri, sans-serif" xml:space="preserve">EndDate: </text><text class="speech-bubble-content property-key" x="316.3037109375" y="150" alignment-baseline="central" text-anchor="end" font-size="50px" font-family="&quot;Gill Sans&quot;, &quot;Gill Sans MT&quot;, Calibri, sans-serif" xml:space="preserve">MonthlyRent: </text><text class="speech-bubble-content property-value" x="316.3037109375" y="-150" alignment-baseline="central" font-size="50px" font-family="&quot;Gill Sans&quot;, &quot;Gill Sans MT&quot;, Calibri, sans-serif">int</text><text class="speech-bubble-content property-value" x="316.3037109375" y="-100" alignment-baseline="central" font-size="50px" font-family="&quot;Gill Sans&quot;, &quot;Gill Sans MT&quot;, Calibri, sans-serif">String</text><text class="speech-bubble-content property-value" x="316.3037109375" y="-50" alignment-baseline="central" font-size="50px" font-family="&quot;Gill Sans&quot;, &quot;Gill Sans MT&quot;, Calibri, sans-serif">String</text><text class="speech-bubble-content property-value" x="316.3037109375" y="0" alignment-baseline="central" font-size="50px" font-family="&quot;Gill Sans&quot;, &quot;Gill Sans MT&quot;, Calibri, sans-serif">int</text><text class="speech-bubble-content property-value" x="316.3037109375" y="50" alignment-baseline="central" font-size="50px" font-family="&quot;Gill Sans&quot;, &quot;Gill Sans MT&quot;, Calibri, sans-serif">date</text><text class="speech-bubble-content property-value" x="316.3037109375" y="100" alignment-baseline="central" font-size="50px" font-family="&quot;Gill Sans&quot;, &quot;Gill Sans MT&quot;, Calibri, sans-serif">date</text><text class="speech-bubble-content property-value" x="316.3037109375" y="150" alignment-baseline="central" font-size="50px" font-family="&quot;Gill Sans&quot;, &quot;Gill Sans MT&quot;, Calibri, sans-serif">float</text></g><g class="speech-bubble node-speech-bubble" transform="translate(985.0352662512421,1152.5440622013896) "><path class="speech-bubble-outline" transform="scale(1,1) " d="M 0 0 L 30 20 L 417.3046875 20 A 10 10 0 0 1 427.3046875 30 L 427.3046875 130 A 10 10 0 0 1 417.3046875 140 L 30 140 A 10 10 0 0 1 20 130 L 20 30 Z" fill="rgb(255, 255, 255)" stroke="rgb(0, 0, 0)" stroke-width="3px"/><text class="speech-bubble-content property-key" x="300.654296875" y="55" alignment-baseline="central" text-anchor="end" font-size="50px" font-family="&quot;Gill Sans&quot;, &quot;Gill Sans MT&quot;, Calibri, sans-serif" xml:space="preserve">Client_ID: </text><text class="speech-bubble-content property-key" x="300.654296875" y="105" alignment-baseline="central" text-anchor="end" font-size="50px" font-family="&quot;Gill Sans&quot;, &quot;Gill Sans MT&quot;, Calibri, sans-serif" xml:space="preserve">ClientName: </text><text class="speech-bubble-content property-value" x="300.654296875" y="55" alignment-baseline="central" font-size="50px" font-family="&quot;Gill Sans&quot;, &quot;Gill Sans MT&quot;, Calibri, sans-serif">int</text><text class="speech-bubble-content property-value" x="300.654296875" y="105" alignment-baseline="central" font-size="50px" font-family="&quot;Gill Sans&quot;, &quot;Gill Sans MT&quot;, Calibri, sans-serif">String</text></g><g class="speech-bubble node-speech-bubble" transform="translate(-1592.422595040393,409.3665776014229) "><path class="speech-bubble-outline" transform="scale(-1,-1) " d="M 0 0 L 30 20 L 380.2685546875 20 A 10 10 0 0 1 390.2685546875 30 L 390.2685546875 130 A 10 10 0 0 1 380.2685546875 140 L 30 140 A 10 10 0 0 1 20 130 L 20 30 Z" fill="rgb(255, 255, 255)" stroke="rgb(0, 0, 0)" stroke-width="3px"/><text class="speech-bubble-content property-key" x="-146.650390625" y="-105" alignment-baseline="central" text-anchor="end" font-size="50px" font-family="&quot;Gill Sans&quot;, &quot;Gill Sans MT&quot;, Calibri, sans-serif" xml:space="preserve">Staff_ID: </text><text class="speech-bubble-content property-key" x="-146.650390625" y="-55" alignment-baseline="central" text-anchor="end" font-size="50px" font-family="&quot;Gill Sans&quot;, &quot;Gill Sans MT&quot;, Calibri, sans-serif" xml:space="preserve">StaffName: </text><text class="speech-bubble-content property-value" x="-146.650390625" y="-105" alignment-baseline="central" font-size="50px" font-family="&quot;Gill Sans&quot;, &quot;Gill Sans MT&quot;, Calibri, sans-serif">String</text><text class="speech-bubble-content property-value" x="-146.650390625" y="-55" alignment-baseline="central" font-size="50px" font-family="&quot;Gill Sans&quot;, &quot;Gill Sans MT&quot;, Calibri, sans-serif">String</text></g><g class="speech-bubble node-speech-bubble" transform="translate(-1543.8505772181932,1181.4165172103103) "><path class="speech-bubble-outline" transform="scale(1,1) " d="M 0 0 L -10 20 L -174.32861328125 20 A 10 10 0 0 0 -184.32861328125 30 L -184.32861328125 180 A 10 10 0 0 0 -174.32861328125 190 L 174.32861328125 190 A 10 10 0 0 0 184.32861328125 180 L 184.32861328125 30 A 10 10 0 0 0 174.32861328125 20 L 10 20 Z" fill="rgb(255, 255, 255)" stroke="rgb(0, 0, 0)" stroke-width="3px"/><text class="speech-bubble-content property-key" x="57.67822265625" y="55" alignment-baseline="central" text-anchor="end" font-size="50px" font-family="&quot;Gill Sans&quot;, &quot;Gill Sans MT&quot;, Calibri, sans-serif" xml:space="preserve">PartCode: </text><text class="speech-bubble-content property-key" x="57.67822265625" y="105" alignment-baseline="central" text-anchor="end" font-size="50px" font-family="&quot;Gill Sans&quot;, &quot;Gill Sans MT&quot;, Calibri, sans-serif" xml:space="preserve">PartName: </text><text class="speech-bubble-content property-value" x="57.67822265625" y="55" alignment-baseline="central" font-size="50px" font-family="&quot;Gill Sans&quot;, &quot;Gill Sans MT&quot;, Calibri, sans-serif">String</text><text class="speech-bubble-content property-value" x="57.67822265625" y="105" alignment-baseline="central" font-size="50px" font-family="&quot;Gill Sans&quot;, &quot;Gill Sans MT&quot;, Calibri, sans-serif">String</text><text class="speech-bubble-content property-key" x="57.67822265625" y="155" alignment-baseline="central" text-anchor="end" font-size="50px" font-family="&quot;Gill Sans&quot;, &quot;Gill Sans MT&quot;, Calibri, sans-serif" xml:space="preserve">Qty: </text><text class="speech-bubble-content property-value" x="57.67822265625" y="155" alignment-baseline="central" font-size="50px" font-family="&quot;Gill Sans&quot;, &quot;Gill Sans MT&quot;, Calibri, sans-serif">int</text></g><g class="speech-bubble node-speech-bubble" transform="translate(-1655.4846157165255,0) "><path class="speech-bubble-outline" transform="scale(-1,1) " d="M 0 0 L 20 -10 L 20 -25 A 10 10 0 0 1 30 -35 L 363.447265625 -35 A 10 10 0 0 1 373.447265625 -25 L 373.447265625 25 A 10 10 0 0 1 363.447265625 35 L 30 35 A 10 10 0 0 1 20 25 L 20 10 Z" fill="rgb(255, 255, 255)" stroke="rgb(0, 0, 0)" stroke-width="3px"/><text class="speech-bubble-content property-key" x="-82.6123046875" y="0" alignment-baseline="central" text-anchor="end" font-size="50px" font-family="&quot;Gill Sans&quot;, &quot;Gill Sans MT&quot;, Calibri, sans-serif" xml:space="preserve">Portfolio_ID: </text><text class="speech-bubble-content property-value" x="-82.6123046875" y="0" alignment-baseline="central" font-size="50px" font-family="&quot;Gill Sans&quot;, &quot;Gill Sans MT&quot;, Calibri, sans-serif">int</text></g></g><g class="layer overlay"><circle class="node overlay" r="116.37477616841198" stroke="none" fill="rgba(255, 255, 255, 0)" cx="-339.5216487702869" cy="457.9385954236227"/><circle class="node overlay" r="107.67090517999684" stroke="none" fill="rgba(255, 255, 255, 0)" cx="924.6820804656495" cy="457.9385954236227"/><circle class="node overlay" r="89.35229387040818" stroke="none" fill="rgba(255, 255, 255, 0)" cx="924.6820804656495" cy="1092.190876415797"/><circle class="node overlay" r="72.69120635598269" stroke="none" fill="rgba(255, 255, 255, 0)" cx="-1543.8505772181932" cy="457.9385954236227"/><circle class="node overlay" r="93.22564079451323" stroke="none" fill="rgba(255, 255, 255, 0)" cx="-1543.8505772181932" cy="1092.190876415797"/><circle class="node overlay" r="115.63403849833232" stroke="none" fill="rgba(255, 255, 255, 0)" cx="-1543.8505772181932" cy="0"/><circle class="node ring" r="121.37477616841198" fill="none" stroke="rgba(255, 255, 255, 0)" stroke-width="10px" cx="-339.5216487702869" cy="457.9385954236227"/><circle class="node ring" r="112.67090517999684" fill="none" stroke="rgba(255, 255, 255, 0)" stroke-width="10px" cx="924.6820804656495" cy="457.9385954236227"/><circle class="node ring" r="94.35229387040818" fill="none" stroke="rgba(255, 255, 255, 0)" stroke-width="10px" cx="924.6820804656495" cy="1092.190876415797"/><circle class="node ring" r="77.69120635598269" fill="none" stroke="rgba(255, 255, 255, 0)" stroke-width="10px" cx="-1543.8505772181932" cy="457.9385954236227"/><circle class="node ring" r="98.22564079451323" fill="none" stroke="rgba(255, 255, 255, 0)" stroke-width="10px" cx="-1543.8505772181932" cy="1092.190876415797"/><circle class="node ring" r="120.63403849833232" fill="none" stroke="rgba(255, 255, 255, 0)" stroke-width="10px" cx="-1543.8505772181932" cy="0"/><path class="relationship overlay" fill="rgba(255, 255, 255, 0)" stroke="rgba(255, 255, 255, 0)" stroke-width="10px" transform="translate(-339.5216487702869,457.9385954236227) rotate(0)" d="M 127.37477616841198 4 L 1113.5328240559395 4 L 1113.5328240559395 16 L 1145.5328240559395 0 L 1113.5328240559395 -16 L 1113.5328240559395 -4 L 127.37477616841198 -4 Z"/><path class="relationship overlay" fill="rgba(255, 255, 255, 0)" stroke="rgba(255, 255, 255, 0)" stroke-width="10px" transform="translate(-339.5216487702869,457.9385954236227) rotate(26.642966423508792)" d="M 127.37477616841198 4 L 1282.0334473465432 4 L 1282.0334473465432 16 L 1314.0334473465432 0 L 1282.0334473465432 -16 L 1282.0334473465432 -4 L 127.37477616841198 -4 Z"/><path class="relationship overlay" fill="rgba(255, 255, 255, 0)" stroke="rgba(255, 255, 255, 0)" stroke-width="10px" transform="translate(-339.5216487702869,457.9385954236227) rotate(180)" d="M 127.37477616841198 4 L 1088.6377220919235 4 L 1088.6377220919235 16 L 1120.6377220919235 0 L 1088.6377220919235 -16 L 1088.6377220919235 -4 L 127.37477616841198 -4 Z"/><path class="relationship overlay" fill="rgba(255, 255, 255, 0)" stroke="rgba(255, 255, 255, 0)" stroke-width="10px" transform="translate(-1543.8505772181932,457.9385954236227) rotate(90)" d="M 83.69120635598269 4 L 498.026640197661 4 L 498.026640197661 16 L 530.026640197661 0 L 498.026640197661 -16 L 498.026640197661 -4 L 83.69120635598269 -4 Z"/><path class="relationship overlay" fill="rgba(255, 255, 255, 0)" stroke="rgba(255, 255, 255, 0)" stroke-width="10px" transform="translate(-339.5216487702869,457.9385954236227) rotate(-159.1810043628368)" d="M 127.37477616841198 4 L 1129.8208210427547 4 L 1129.8208210427547 16 L 1161.8208210427547 0 L 1129.8208210427547 -16 L 1129.8208210427547 -4 L 127.37477616841198 -4 Z"/></g></svg>