<svg xmlns="http://www.w3.org/2000/svg" class="graphdiagram" viewBox="-2411.087224243417 186.97762916061805 2982.9429434746576 1632.332666290299"><g class="layer relationships"><g class="related-pair"><g class="relationship" transform="translate(-339.5216487702869,457.9385954236227) rotate(141.6631406817904)"><path class="relationship" d="M 127.37477616841198 4 L 871.8486556313475 4 L 871.8486556313475 16 L 903.8486556313475 0 L 871.8486556313475 -16 L 871.8486556313475 -4 L 127.37477616841198 -4 Z" fill="rgb(0, 0, 0)" stroke="rgb(51, 51, 51)" stroke-width="0px"/><text class="type" text-anchor="middle" baseline-shift="30%" alignment-baseline="alphabetic" x="-499.6117158998797" y="0" font-size="50px" font-family="&quot;Gill Sans&quot;, &quot;Gill Sans MT&quot;, Calibri, sans-serif" transform="rotate(180)">RENTED_BY</text></g></g><g class="related-pair"><g class="relationship" transform="translate(-339.5216487702869,457.9385954236227) rotate(158.88273266432068)"><path class="relationship" d="M 127.37477616841198 4 L 727.4275529179391 4 L 727.4275529179391 16 L 759.4275529179391 0 L 727.4275529179391 -16 L 727.4275529179391 -4 L 127.37477616841198 -4 Z" fill="rgb(0, 0, 0)" stroke="rgb(51, 51, 51)" stroke-width="0px"/><text class="type" text-anchor="middle" baseline-shift="30%" alignment-baseline="alphabetic" x="-427.4011645431755" y="0" font-size="50px" font-family="&quot;Gill Sans&quot;, &quot;Gill Sans MT&quot;, Calibri, sans-serif" transform="rotate(180)">OWNED_BY</text></g></g><g class="related-pair"><g class="relationship" transform="translate(-339.5216487702869,457.9385954236227) rotate(180)"><path class="relationship" d="M 127.37477616841198 4 L 686.3501244356719 4 L 686.3501244356719 16 L 718.3501244356719 0 L 686.3501244356719 -16 L 686.3501244356719 -4 L 127.37477616841198 -4 Z" fill="rgb(0, 0, 0)" stroke="rgb(51, 51, 51)" stroke-width="0px"/><text class="type" text-anchor="middle" baseline-shift="30%" alignment-baseline="alphabetic" transform="rotate(180)" x="-406.86245030204196" y="0" font-size="50px" font-family="&quot;Gill Sans&quot;, &quot;Gill Sans MT&quot;, Calibri, sans-serif">REPAIRED_BY</text></g></g><g class="related-pair"><g class="relationship" transform="translate(-1141.5629795619416,457.9385954236227) rotate(180)"><path class="relationship" d="M 83.69120635598269 4 L 377.58624885392624 4 L 377.58624885392624 16 L 409.58624885392624 0 L 377.58624885392624 -16 L 377.58624885392624 -4 L 83.69120635598269 -4 Z" fill="rgb(0, 0, 0)" stroke="rgb(51, 51, 51)" stroke-width="0px"/><text class="type" text-anchor="middle" baseline-shift="30%" alignment-baseline="alphabetic" x="-230.63872760495445" y="0" font-size="50px" font-family="&quot;Gill Sans&quot;, &quot;Gill Sans MT&quot;, Calibri, sans-serif" transform="rotate(180)">USE</text></g></g><g class="related-pair"><g class="relationship" transform="translate(-339.5216487702869,457.9385954236227) rotate(124.44252574117054)"><path class="relationship" d="M 127.37477616841198 4 L 1259.4542637893287 4 L 1259.4542637893287 16 L 1291.4542637893287 0 L 1259.4542637893287 -16 L 1259.4542637893287 -4 L 127.37477616841198 -4 Z" fill="rgb(0, 0, 0)" stroke="rgb(51, 51, 51)" stroke-width="0px"/><text class="type" text-anchor="middle" baseline-shift="30%" alignment-baseline="alphabetic" x="-693.4145199788704" y="0" font-size="50px" font-family="&quot;Gill Sans&quot;, &quot;Gill Sans MT&quot;, Calibri, sans-serif" transform="rotate(180)">HAVE</text></g></g></g><g class="layer nodes"><circle class="node node-id-0" r="112.37477616841198" fill="rgb(255, 255, 255)" stroke="rgb(0, 0, 0)" stroke-width="8px" cx="-339.5216487702869" cy="457.9385954236227"/><circle class="node node-id-1" r="103.67090517999684" fill="rgb(255, 255, 255)" stroke="rgb(0, 0, 0)" stroke-width="8px" cx="-1141.5629795619416" cy="1092.190876415797"/><circle class="node node-id-4" r="85.35229387040818" fill="rgb(255, 255, 255)" stroke="rgb(0, 0, 0)" stroke-width="8px" cx="-1141.5629795619416" cy="767.6983227048585"/><circle class="node node-id-5" r="68.69120635598269" fill="rgb(255, 255, 255)" stroke="rgb(0, 0, 0)" stroke-width="8px" cx="-1141.5629795619416" cy="457.9385954236227"/><circle class="node node-id-6" r="89.22564079451323" fill="rgb(255, 255, 255)" stroke="rgb(0, 0, 0)" stroke-width="8px" cx="-1655.374869210381" cy="457.9385954236227"/><circle class="node node-id-7" r="111.63403849833232" fill="rgb(255, 255, 255)" stroke="rgb(0, 0, 0)" stroke-width="8px" cx="-1141.5629795619416" cy="1627.4274311065687"/><g class="caption"><text class="caption node" text-anchor="middle" alignment-baseline="central" x="-339.5216487702869" y="457.9385954236227" fill="rgb(51, 51, 51)" font-size="50px" font-family="&quot;Gill Sans&quot;, &quot;Gill Sans MT&quot;, Calibri, sans-serif">Property</text></g><g class="caption"><text class="caption node" text-anchor="middle" alignment-baseline="central" x="-1141.5629795619416" y="1092.190876415797" fill="rgb(51, 51, 51)" font-size="50px" font-family="&quot;Gill Sans&quot;, &quot;Gill Sans MT&quot;, Calibri, sans-serif">Tenancy</text></g><g class="caption"><text class="caption node" text-anchor="middle" alignment-baseline="central" x="-1141.5629795619416" y="767.6983227048585" fill="rgb(51, 51, 51)" font-size="50px" font-family="&quot;Gill Sans&quot;, &quot;Gill Sans MT&quot;, Calibri, sans-serif">Client</text></g><g class="caption"><text class="caption node" text-anchor="middle" alignment-baseline="central" x="-1141.5629795619416" y="457.9385954236227" fill="rgb(51, 51, 51)" font-size="50px" font-family="&quot;Gill Sans&quot;, &quot;Gill Sans MT&quot;, Calibri, sans-serif">Staff</text></g><g class="caption"><text class="caption node" text-anchor="middle" alignment-baseline="central" x="-1655.374869210381" y="457.9385954236227" fill="rgb(51, 51, 51)" font-size="50px" font-family="&quot;Gill Sans&quot;, &quot;Gill Sans MT&quot;, Calibri, sans-serif">Repair</text></g><g class="caption"><text class="caption node" text-anchor="middle" alignment-baseline="central" x="-1141.5629795619416" y="1627.4274311065687" fill="rgb(51, 51, 51)" font-size="50px" font-family="&quot;Gill Sans&quot;, &quot;Gill Sans MT&quot;, Calibri, sans-serif">Portfolio</text></g></g><g class="layer properties"><g class="speech-bubble node-speech-bubble" transform="translate(-260.06068250728237,378.47762916061816) "><path class="speech-bubble-outline" transform="scale(1,-1) " d="M 0 0 L 30 20 L 544.0869140625 20 A 10 10 0 0 1 554.0869140625 30 L 554.0869140625 180 A 10 10 0 0 1 544.0869140625 190 L 30 190 A 10 10 0 0 1 20 180 L 20 30 Z" fill="rgb(255, 255, 255)" stroke="rgb(0, 0, 0)" stroke-width="3px"/><text class="speech-bubble-content property-key" x="427.4365234375" y="-155" alignment-baseline="central" text-anchor="end" font-size="50px" font-family="&quot;Gill Sans&quot;, &quot;Gill Sans MT&quot;, Calibri, sans-serif" xml:space="preserve">Property_ID: </text><text class="speech-bubble-content property-key" x="427.4365234375" y="-105" alignment-baseline="central" text-anchor="end" font-size="50px" font-family="&quot;Gill Sans&quot;, &quot;Gill Sans MT&quot;, Calibri, sans-serif" xml:space="preserve">Property_Address: </text><text class="speech-bubble-content property-key" x="427.4365234375" y="-55" alignment-baseline="central" text-anchor="end" font-size="50px" font-family="&quot;Gill Sans&quot;, &quot;Gill Sans MT&quot;, Calibri, sans-serif" xml:space="preserve">Property_Type: </text><text class="speech-bubble-content property-value" x="427.4365234375" y="-155" alignment-baseline="central" font-size="50px" font-family="&quot;Gill Sans&quot;, &quot;Gill Sans MT&quot;, Calibri, sans-serif">int</text><text class="speech-bubble-content property-value" x="427.4365234375" y="-105" alignment-baseline="central" font-size="50px" font-family="&quot;Gill Sans&quot;, &quot;Gill Sans MT&quot;, Calibri, sans-serif">String</text><text class="speech-bubble-content property-value" x="427.4365234375" y="-55" alignment-baseline="central" font-size="50px" font-family="&quot;Gill Sans&quot;, &quot;Gill Sans MT&quot;, Calibri, sans-serif">String</text></g><g class="speech-bubble node-speech-bubble" transform="translate(-1214.869379626465,1165.4972764803204) "><path class="speech-bubble-outline" transform="scale(-1,1) " d="M 0 0 L 30 20 L 432.9541015625 20 A 10 10 0 0 1 442.9541015625 30 L 442.9541015625 380 A 10 10 0 0 1 432.9541015625 390 L 30 390 A 10 10 0 0 1 20 380 L 20 30 Z" fill="rgb(255, 255, 255)" stroke="rgb(0, 0, 0)" stroke-width="3px"/><text class="speech-bubble-content property-key" x="-146.650390625" y="55" alignment-baseline="central" text-anchor="end" font-size="50px" font-family="&quot;Gill Sans&quot;, &quot;Gill Sans MT&quot;, Calibri, sans-serif" xml:space="preserve">Tenant_ID: </text><text class="speech-bubble-content property-key" x="-146.650390625" y="105" alignment-baseline="central" text-anchor="end" font-size="50px" font-family="&quot;Gill Sans&quot;, &quot;Gill Sans MT&quot;, Calibri, sans-serif" xml:space="preserve">TenantName: </text><text class="speech-bubble-content property-key" x="-146.650390625" y="155" alignment-baseline="central" text-anchor="end" font-size="50px" font-family="&quot;Gill Sans&quot;, &quot;Gill Sans MT&quot;, Calibri, sans-serif" xml:space="preserve">TenantType: </text><text class="speech-bubble-content property-key" x="-146.650390625" y="205" alignment-baseline="central" text-anchor="end" font-size="50px" font-family="&quot;Gill Sans&quot;, &quot;Gill Sans MT&quot;, Calibri, sans-serif" xml:space="preserve">Property_ID: </text><text class="speech-bubble-content property-key" x="-146.650390625" y="255" alignment-baseline="central" text-anchor="end" font-size="50px" font-family="&quot;Gill Sans&quot;, &quot;Gill Sans MT&quot;, Calibri, sans-serif" xml:space="preserve">StartDate: </text><text class="speech-bubble-content property-key" x="-146.650390625" y="305" alignment-baseline="central" text-anchor="end" font-size="50px" font-family="&quot;Gill Sans&quot;, &quot;Gill Sans MT&quot;, Calibri, sans-serif" xml:space="preserve">EndDate: </text><text class="speech-bubble-content property-key" x="-146.650390625" y="355" alignment-baseline="central" text-anchor="end" font-size="50px" font-family="&quot;Gill Sans&quot;, &quot;Gill Sans MT&quot;, Calibri, sans-serif" xml:space="preserve">MonthlyRent: </text><text class="speech-bubble-content property-value" x="-146.650390625" y="55" alignment-baseline="central" font-size="50px" font-family="&quot;Gill Sans&quot;, &quot;Gill Sans MT&quot;, Calibri, sans-serif">int</text><text class="speech-bubble-content property-value" x="-146.650390625" y="105" alignment-baseline="central" font-size="50px" font-family="&quot;Gill Sans&quot;, &quot;Gill Sans MT&quot;, Calibri, sans-serif">String</text><text class="speech-bubble-content property-value" x="-146.650390625" y="155" alignment-baseline="central" font-size="50px" font-family="&quot;Gill Sans&quot;, &quot;Gill Sans MT&quot;, Calibri, sans-serif">String</text><text class="speech-bubble-content property-value" x="-146.650390625" y="205" alignment-baseline="central" font-size="50px" font-family="&quot;Gill Sans&quot;, &quot;Gill Sans MT&quot;, Calibri, sans-serif">int</text><text class="speech-bubble-content property-value" x="-146.650390625" y="255" alignment-baseline="central" font-size="50px" font-family="&quot;Gill Sans&quot;, &quot;Gill Sans MT&quot;, Calibri, sans-serif">date</text><text class="speech-bubble-content property-value" x="-146.650390625" y="305" alignment-baseline="central" font-size="50px" font-family="&quot;Gill Sans&quot;, &quot;Gill Sans MT&quot;, Calibri, sans-serif">date</text><text class="speech-bubble-content property-value" x="-146.650390625" y="355" alignment-baseline="central" font-size="50px" font-family="&quot;Gill Sans&quot;, &quot;Gill Sans MT&quot;, Calibri, sans-serif">float</text></g><g class="speech-bubble node-speech-bubble" transform="translate(-1226.9152734323497,767.6983227048585) "><path class="speech-bubble-outline" transform="scale(-1,1) " d="M 0 0 L 20 -10 L 20 -50 A 10 10 0 0 1 30 -60 L 417.3046875 -60 A 10 10 0 0 1 427.3046875 -50 L 427.3046875 50 A 10 10 0 0 1 417.3046875 60 L 30 60 A 10 10 0 0 1 20 50 L 20 10 Z" fill="rgb(255, 255, 255)" stroke="rgb(0, 0, 0)" stroke-width="3px"/><text class="speech-bubble-content property-key" x="-146.650390625" y="-25" alignment-baseline="central" text-anchor="end" font-size="50px" font-family="&quot;Gill Sans&quot;, &quot;Gill Sans MT&quot;, Calibri, sans-serif" xml:space="preserve">Client_ID: </text><text class="speech-bubble-content property-key" x="-146.650390625" y="25" alignment-baseline="central" text-anchor="end" font-size="50px" font-family="&quot;Gill Sans&quot;, &quot;Gill Sans MT&quot;, Calibri, sans-serif" xml:space="preserve">ClientName: </text><text class="speech-bubble-content property-value" x="-146.650390625" y="-25" alignment-baseline="central" font-size="50px" font-family="&quot;Gill Sans&quot;, &quot;Gill Sans MT&quot;, Calibri, sans-serif">int</text><text class="speech-bubble-content property-value" x="-146.650390625" y="25" alignment-baseline="central" font-size="50px" font-family="&quot;Gill Sans&quot;, &quot;Gill Sans MT&quot;, Calibri, sans-serif">String</text></g><g class="speech-bubble node-speech-bubble" transform="translate(-1141.5629795619416,389.24738906764003) "><path class="speech-bubble-outline" transform="scale(1,-1) " d="M 0 0 L -10 20 L -175.13427734375 20 A 10 10 0 0 0 -185.13427734375 30 L -185.13427734375 130 A 10 10 0 0 0 -175.13427734375 140 L 175.13427734375 140 A 10 10 0 0 0 185.13427734375 130 L 185.13427734375 30 A 10 10 0 0 0 175.13427734375 20 L 10 20 Z" fill="rgb(255, 255, 255)" stroke="rgb(0, 0, 0)" stroke-width="3px"/><text class="speech-bubble-content property-key" x="58.48388671875" y="-105" alignment-baseline="central" text-anchor="end" font-size="50px" font-family="&quot;Gill Sans&quot;, &quot;Gill Sans MT&quot;, Calibri, sans-serif" xml:space="preserve">Staff_ID: </text><text class="speech-bubble-content property-key" x="58.48388671875" y="-55" alignment-baseline="central" text-anchor="end" font-size="50px" font-family="&quot;Gill Sans&quot;, &quot;Gill Sans MT&quot;, Calibri, sans-serif" xml:space="preserve">StaffName: </text><text class="speech-bubble-content property-value" x="58.48388671875" y="-105" alignment-baseline="central" font-size="50px" font-family="&quot;Gill Sans&quot;, &quot;Gill Sans MT&quot;, Calibri, sans-serif">String</text><text class="speech-bubble-content property-value" x="58.48388671875" y="-55" alignment-baseline="central" font-size="50px" font-family="&quot;Gill Sans&quot;, &quot;Gill Sans MT&quot;, Calibri, sans-serif">String</text></g><g class="speech-bubble node-speech-bubble" transform="translate(-1744.6005100048942,457.9385954236227) "><path class="speech-bubble-outline" transform="scale(-1,1) " d="M 0 0 L 20 -10 L 20 -75 A 10 10 0 0 1 30 -85 L 378.6572265625 -85 A 10 10 0 0 1 388.6572265625 -75 L 388.6572265625 75 A 10 10 0 0 1 378.6572265625 85 L 30 85 A 10 10 0 0 1 20 75 L 20 10 Z" fill="rgb(255, 255, 255)" stroke="rgb(0, 0, 0)" stroke-width="3px"/><text class="speech-bubble-content property-key" x="-146.650390625" y="-50" alignment-baseline="central" text-anchor="end" font-size="50px" font-family="&quot;Gill Sans&quot;, &quot;Gill Sans MT&quot;, Calibri, sans-serif" xml:space="preserve">PartCode: </text><text class="speech-bubble-content property-key" x="-146.650390625" y="0" alignment-baseline="central" text-anchor="end" font-size="50px" font-family="&quot;Gill Sans&quot;, &quot;Gill Sans MT&quot;, Calibri, sans-serif" xml:space="preserve">PartName: </text><text class="speech-bubble-content property-key" x="-146.650390625" y="50" alignment-baseline="central" text-anchor="end" font-size="50px" font-family="&quot;Gill Sans&quot;, &quot;Gill Sans MT&quot;, Calibri, sans-serif" xml:space="preserve">Qty: </text><text class="speech-bubble-content property-value" x="-146.650390625" y="-50" alignment-baseline="central" font-size="50px" font-family="&quot;Gill Sans&quot;, &quot;Gill Sans MT&quot;, Calibri, sans-serif">String</text><text class="speech-bubble-content property-value" x="-146.650390625" y="0" alignment-baseline="central" font-size="50px" font-family="&quot;Gill Sans&quot;, &quot;Gill Sans MT&quot;, Calibri, sans-serif">String</text><text class="speech-bubble-content property-value" x="-146.650390625" y="50" alignment-baseline="central" font-size="50px" font-family="&quot;Gill Sans&quot;, &quot;Gill Sans MT&quot;, Calibri, sans-serif">int</text></g><g class="speech-bubble node-speech-bubble" transform="translate(-1220.5001651953526,1706.3646167399797) "><path class="speech-bubble-outline" transform="scale(-1,1) " d="M 0 0 L 30 20 L 363.447265625 20 A 10 10 0 0 1 373.447265625 30 L 373.447265625 80 A 10 10 0 0 1 363.447265625 90 L 30 90 A 10 10 0 0 1 20 80 L 20 30 Z" fill="rgb(255, 255, 255)" stroke="rgb(0, 0, 0)" stroke-width="3px"/><text class="speech-bubble-content property-key" x="-82.6123046875" y="55" alignment-baseline="central" text-anchor="end" font-size="50px" font-family="&quot;Gill Sans&quot;, &quot;Gill Sans MT&quot;, Calibri, sans-serif" xml:space="preserve">Portfolio_ID: </text><text class="speech-bubble-content property-value" x="-82.6123046875" y="55" alignment-baseline="central" font-size="50px" font-family="&quot;Gill Sans&quot;, &quot;Gill Sans MT&quot;, Calibri, sans-serif">int</text></g></g><g class="layer overlay"><circle class="node overlay" r="116.37477616841198" stroke="none" fill="rgba(255, 255, 255, 0)" cx="-339.5216487702869" cy="457.9385954236227"/><circle class="node overlay" r="107.67090517999684" stroke="none" fill="rgba(255, 255, 255, 0)" cx="-1141.5629795619416" cy="1092.190876415797"/><circle class="node overlay" r="89.35229387040818" stroke="none" fill="rgba(255, 255, 255, 0)" cx="-1141.5629795619416" cy="767.6983227048585"/><circle class="node overlay" r="72.69120635598269" stroke="none" fill="rgba(255, 255, 255, 0)" cx="-1141.5629795619416" cy="457.9385954236227"/><circle class="node overlay" r="93.22564079451323" stroke="none" fill="rgba(255, 255, 255, 0)" cx="-1655.374869210381" cy="457.9385954236227"/><circle class="node overlay" r="115.63403849833232" stroke="none" fill="rgba(255, 255, 255, 0)" cx="-1141.5629795619416" cy="1627.4274311065687"/><circle class="node ring" r="121.37477616841198" fill="none" stroke="rgba(255, 255, 255, 0)" stroke-width="10px" cx="-339.5216487702869" cy="457.9385954236227"/><circle class="node ring" r="112.67090517999684" fill="none" stroke="rgba(255, 255, 255, 0)" stroke-width="10px" cx="-1141.5629795619416" cy="1092.190876415797"/><circle class="node ring" r="94.35229387040818" fill="none" stroke="rgba(255, 255, 255, 0)" stroke-width="10px" cx="-1141.5629795619416" cy="767.6983227048585"/><circle class="node ring" r="77.69120635598269" fill="none" stroke="rgba(255, 255, 255, 0)" stroke-width="10px" cx="-1141.5629795619416" cy="457.9385954236227"/><circle class="node ring" r="98.22564079451323" fill="none" stroke="rgba(255, 255, 255, 0)" stroke-width="10px" cx="-1655.374869210381" cy="457.9385954236227"/><circle class="node ring" r="120.63403849833232" fill="none" stroke="rgba(255, 255, 255, 0)" stroke-width="10px" cx="-1141.5629795619416" cy="1627.4274311065687"/><path class="relationship overlay" fill="rgba(255, 255, 255, 0)" stroke="rgba(255, 255, 255, 0)" stroke-width="10px" transform="translate(-339.5216487702869,457.9385954236227) rotate(141.6631406817904)" d="M 127.37477616841198 4 L 871.8486556313475 4 L 871.8486556313475 16 L 903.8486556313475 0 L 871.8486556313475 -16 L 871.8486556313475 -4 L 127.37477616841198 -4 Z"/><path class="relationship overlay" fill="rgba(255, 255, 255, 0)" stroke="rgba(255, 255, 255, 0)" stroke-width="10px" transform="translate(-339.5216487702869,457.9385954236227) rotate(158.88273266432068)" d="M 127.37477616841198 4 L 727.4275529179391 4 L 727.4275529179391 16 L 759.4275529179391 0 L 727.4275529179391 -16 L 727.4275529179391 -4 L 127.37477616841198 -4 Z"/><path class="relationship overlay" fill="rgba(255, 255, 255, 0)" stroke="rgba(255, 255, 255, 0)" stroke-width="10px" transform="translate(-339.5216487702869,457.9385954236227) rotate(180)" d="M 127.37477616841198 4 L 686.3501244356719 4 L 686.3501244356719 16 L 718.3501244356719 0 L 686.3501244356719 -16 L 686.3501244356719 -4 L 127.37477616841198 -4 Z"/><path class="relationship overlay" fill="rgba(255, 255, 255, 0)" stroke="rgba(255, 255, 255, 0)" stroke-width="10px" transform="translate(-1141.5629795619416,457.9385954236227) rotate(180)" d="M 83.69120635598269 4 L 377.58624885392624 4 L 377.58624885392624 16 L 409.58624885392624 0 L 377.58624885392624 -16 L 377.58624885392624 -4 L 83.69120635598269 -4 Z"/><path class="relationship overlay" fill="rgba(255, 255, 255, 0)" stroke="rgba(255, 255, 255, 0)" stroke-width="10px" transform="translate(-339.5216487702869,457.9385954236227) rotate(124.44252574117054)" d="M 127.37477616841198 4 L 1259.4542637893287 4 L 1259.4542637893287 16 L 1291.4542637893287 0 L 1259.4542637893287 -16 L 1259.4542637893287 -4 L 127.37477616841198 -4 Z"/></g></svg>